<svg id="Capa_1" enable-background="new 0 0 512 512" height="512" viewBox="0 0 512 512" width="512" xmlns="http://www.w3.org/2000/svg"><g><g><g><g><g><path d="m329.739 357.087c0 16.316-8.308 30.675-20.91 39.132h128.008c12.586-8.459 20.87-22.827 20.87-39.132v-15.368c0-47.781-38.735-86.516-86.516-86.516-25.354 0-48.16 10.908-63.984 28.285 13.997 15.371 22.532 35.804 22.532 58.231z" fill="#fff3de"/><g><path d="m327.87 323.799c6.844-32.473 31.897-58.228 63.984-66.094-6.623-1.624-13.539-2.502-20.663-2.502-25.354 0-48.16 10.908-63.984 28.285 10.162 11.159 17.435 24.989 20.663 40.311z" fill="#ffe5c2"/></g><path d="m371.191 295.203c-19.548 0-36.307 12.127-43.179 29.248 1.13 5.58 1.728 11.354 1.728 17.268v15.368c0 2.256-.169 4.473-.475 6.644.787.3 1.636.472 2.527.472h78.8c3.924 0 7.116-3.192 7.116-7.116v-15.368c-.001-25.649-20.868-46.516-46.517-46.516z" fill="#fe860a"/><path d="m404.513 309.311-35.713 23.808c7.223 5.785 11.874 14.665 11.874 24.584 0 2.227-.238 4.401-.683 6.5h30.599c3.924 0 7.116-3.192 7.116-7.116v-15.368c.001-12.592-5.037-24.024-13.193-32.408z" fill="#fd8087"/></g><path d="m349.175 326.203h-20.85c.913 5.037 1.415 10.216 1.415 15.516v15.368c0 2.256-.169 4.473-.475 6.644.787.3 1.636.472 2.527.472h48.201c.445-2.099.683-4.273.683-6.5-.001-17.325-14.176-31.5-31.501-31.5z" fill="#bbec6c"/></g><g><g><path d="m177.576 396.218h131.294c12.586-8.459 20.87-22.827 20.87-39.132v-15.368c0-47.781-38.735-86.516-86.516-86.516-11.99 0-23.408 2.441-33.789 6.85-5.124 17.931-20.596 31.483-39.551 33.789-8.338 13.301-13.176 29.02-13.176 45.877v15.368c-.001 16.305 8.282 30.673 20.868 39.132z" fill="#fff3de"/><path d="m177.576 396.218h41.313c-11.455-7.697-19.352-20.282-20.681-34.776-.937-1.205-1.501-2.714-1.501-4.356v-15.368c0-5.495.964-10.768 2.722-15.666 6.138-33.536 31.608-60.309 64.441-68.351-6.618-1.621-13.529-2.499-20.646-2.499-11.99 0-23.408 2.441-33.789 6.85-5.124 17.931-20.596 31.483-39.551 33.789-8.338 13.301-13.176 29.02-13.176 45.877v15.368c-.001 16.305 8.282 30.673 20.868 39.132z" fill="#ffe5c2"/><g><path d="m203.823 364.203c-3.924 0-7.116-3.192-7.116-7.116v-15.368c0-25.649 20.867-46.516 46.516-46.516s46.516 20.867 46.516 46.516v15.368c0 3.924-3.192 7.116-7.116 7.116z" fill="#fe860a"/></g><path d="m276.545 309.311-35.713 23.808c7.223 5.785 11.874 14.665 11.874 24.584 0 2.227-.238 4.401-.683 6.5h30.599c3.924 0 7.116-3.192 7.116-7.116v-15.368c.001-12.592-5.037-24.024-13.193-32.408z" fill="#fd8087"/></g><g><path d="m252.707 357.703c0-17.325-14.175-31.5-31.5-31.5h-21.829c-1.724 4.856-2.671 10.077-2.671 15.516v15.368c0 3.924 3.192 7.116 7.116 7.116h48.201c.445-2.099.683-4.273.683-6.5z" fill="#bbec6c"/></g></g></g><g><path d="m207.925 209.962 256.076-147.846-10.187-17.645c-1.277-2.212-4.106-2.97-6.318-1.693l-249.914 144.288c4.497 7.007 8.007 14.701 10.343 22.896z" fill="#883f2e"/><g><g><g><path d="m164.139 296.203h-78.8c-26.022 0-47.116-21.095-47.116-47.116v-15.368c0-47.781 38.735-86.516 86.516-86.516 47.782 0 86.516 38.735 86.516 86.516v15.368c0 26.021-21.094 47.116-47.116 47.116z" fill="#fff3de"/></g><path d="m80.264 254.066c-1.26-1.284-2.041-3.042-2.041-4.979v-15.368c0-6.439 1.317-12.576 3.693-18.158 6.899-32.286 31.81-57.892 63.712-65.804-6.691-1.659-13.684-2.554-20.888-2.554-47.781 0-86.516 38.734-86.516 86.516v15.368c0 26.022 21.095 47.116 47.116 47.116h41.777c-24.34 0-44.365-18.457-46.853-42.137z" fill="#ffe5c2"/><path d="m137.943 250.366 33.24-19.191c-1.326-24.47-21.649-43.972-46.444-43.972-25.649 0-46.516 20.867-46.516 46.516v15.368c0 3.924 3.192 7.116 7.116 7.116h47.407c1.03-2.369 2.788-4.446 5.197-5.837z" fill="#fe860a"/><path d="m133.9 254.119c1.022-1.49 2.373-2.789 4.043-3.753l33.239-19.191c-.629-11.584-5.517-22.049-13.12-29.865l-35.713 23.808c7.223 5.785 11.874 14.665 11.874 24.584 0 1.5-.116 2.972-.323 4.417z" fill="#fd8087"/></g><g><path d="m134.223 249.703c0-17.325-14.175-31.5-31.5-31.5h-21.829c-1.724 4.856-2.671 10.077-2.671 15.516v15.368c0 3.924 3.192 7.116 7.116 7.116h48.201c.445-2.099.683-4.273.683-6.5z" fill="#bbec6c"/></g></g><g><path d="m464.001 62.116 10.187 17.645c1.277 2.212.519 5.041-1.693 6.318l-322.052 185.938c-5.979 3.452-13.624 1.403-17.075-4.575-3.452-5.979-1.403-13.624 4.575-17.075z" fill="#a44f3e"/></g></g></g><g><path d="m63.613 429.987v34.86c0 2.761 2.239 5 5 5h374.774c2.761 0 5-2.239 5-5v-34.86z" fill="#ffe5c2"/><path d="m127.226 464.848v-34.86h-63.613v34.86c0 2.761 2.239 5 5 5h63.613c-2.762 0-5-2.239-5-5z" fill="#fed2a4"/><g><path d="m499.5 430.988h-487c-2.761 0-5-2.239-5-5v-24.77c0-2.761 2.239-5 5-5h487c2.761 0 5 2.239 5 5v24.77c0 2.761-2.239 5-5 5z" fill="#fdb97e"/></g><g><path d="m68 425.988v-24.77c0-2.761 2.239-5 5-5h-60.5c-2.761 0-5 2.239-5 5v24.77c0 2.761 2.239 5 5 5h60.5c-2.761 0-5-2.239-5-5z" fill="#fea95c"/></g></g><g><path d="m243.223 287.703c-29.785 0-54.016 24.231-54.016 54.016v15.368c0 8.06 6.557 14.616 14.616 14.616h78.8c8.06 0 14.616-6.557 14.616-14.616v-15.368c0-29.785-24.231-54.016-54.016-54.016zm0 15c7.615 0 14.721 2.201 20.732 5.988l-23.055 15.37c-5.784-3.399-12.512-5.358-19.693-5.358h-9.462c7.106-9.692 18.567-16 31.478-16zm-39.016 54v-14.984c0-.676.017-1.351.052-2.023.001-.024.004-.047.005-.07.107-1.996.365-3.974.775-5.923h16.167c12.898 0 23.453 10.229 23.979 23zm78.032 0h-22.058c-.212-8.349-3.048-16.058-7.73-22.316l22.66-15.107c4.483 6.352 7.128 14.09 7.128 22.439z"/><path d="m499.5 388.718h-44.439c6.377-8.932 10.146-19.845 10.146-31.632v-15.368c0-18.847-5.559-37.032-16.075-52.589-2.319-3.432-6.981-4.334-10.414-2.013-3.432 2.319-4.333 6.982-2.013 10.414 8.833 13.067 13.501 28.348 13.501 44.189v15.368c0 12.911-6.21 24.396-15.799 31.632h-107.311c3.633-5.096 6.418-10.835 8.139-17.016h44.756 30.599c8.06 0 14.616-6.557 14.616-14.616v-15.368c0-29.785-24.231-54.016-54.016-54.016-16.297 0-30.927 7.259-40.839 18.709-3.296-8.104-7.703-15.639-13.011-22.438 14.121-13.182 33.053-21.271 53.849-21.271 15.15 0 29.888 4.321 42.62 12.497 3.485 2.237 8.125 1.228 10.363-2.259 2.238-3.485 1.227-8.125-2.259-10.363-15.154-9.731-32.694-14.875-50.725-14.875-24.694 0-47.191 9.575-63.984 25.202-16.792-15.627-39.288-25.202-63.983-25.202-8.478 0-16.697 1.129-24.515 3.243.021-.619.047-1.236.047-1.859v-7.85l257.49-148.662c5.79-3.342 7.781-10.772 4.438-16.563l-20.371-35.29c-1.619-2.806-4.234-4.813-7.363-5.65-3.128-.84-6.396-.408-9.201 1.211l-243.98 140.861c-17.176-22.724-44.411-37.442-75.026-37.442-51.841 0-94.016 42.175-94.016 94.016v15.368c0 30.115 24.501 54.616 54.616 54.616h71.91c-5.165 11.63-8.043 24.492-8.043 38.016v15.368c0 11.787 3.769 22.7 10.146 31.632h-146.853c-6.893 0-12.5 5.607-12.5 12.5v24.77c0 6.893 5.607 12.5 12.5 12.5h43.613v26.36c0 6.893 5.607 12.5 12.5 12.5h89.387c4.142 0 7.5-3.358 7.5-7.5s-3.358-7.5-7.5-7.5h-86.887v-23.86h275.887c4.142 0 7.5-3.358 7.5-7.5s-3.358-7.5-7.5-7.5h-332v-19.77h482v19.77h-115c-4.142 0-7.5 3.358-7.5 7.5s3.358 7.5 7.5 7.5h58.887v23.86h-247.887c-4.142 0-7.5 3.358-7.5 7.5s3.358 7.5 7.5 7.5h250.387c6.893 0 12.5-5.607 12.5-12.5v-26.36h43.613c6.893 0 12.5-5.607 12.5-12.5v-24.77c0-6.892-5.607-12.5-12.5-12.5zm-89.293-46.999v14.984h-22.058c-.212-8.349-3.048-16.058-7.73-22.316l22.66-15.107c4.484 6.352 7.128 14.09 7.128 22.439zm-39.016-39.016c7.615 0 14.721 2.201 20.732 5.988l-23.055 15.37c-5.784-3.399-12.512-5.358-19.693-5.358h-9.462c7.106-9.692 18.567-16 31.478-16zm-22.016 31c12.898 0 23.453 10.229 23.979 23h-35.915v-14.984c0-2.7-.121-5.373-.345-8.016zm99.581-282.992 5 8.66-181.98 105.066-59.706 34.471c-1.249-3.122-2.67-6.156-4.234-9.103zm-239.027 166.869 51.972-30.006 199.555-115.213 5 8.66-319.564 184.5c-1.157.667-2.504.846-3.793.5-1.29-.345-2.368-1.173-3.036-2.33-1.378-2.388-.558-5.452 1.83-6.83zm-87.313-1.519c-5.784-3.399-12.512-5.358-19.693-5.358h-9.462c7.106-9.692 18.566-16 31.478-16 7.615 0 14.721 2.201 20.732 5.988zm4.287 32.642h-40.98v-14.984c0-.676.017-1.351.052-2.023.001-.024.004-.047.005-.07.107-1.996.365-3.974.775-5.923h16.167c12.9 0 23.454 10.228 23.981 23zm29.925-37.423c3.277 4.643 5.565 10.028 6.563 15.849l-22.657 13.081c-1.268-5.072-3.522-9.755-6.565-13.823zm-110.905 37.807v-15.368c0-43.57 35.446-79.016 79.016-79.016 34.01 0 63.052 21.605 74.167 51.805l-22.134 12.779c-6.328-22.797-27.247-39.585-52.033-39.585-29.785 0-54.016 24.231-54.016 54.016v15.368c0 8.06 6.557 14.616 14.616 14.616h39.014c.321 2.567 1.147 5.111 2.52 7.488 2.671 4.626 6.984 7.936 12.144 9.319 1.723.461 3.471.69 5.208.69 3.466 0 6.886-.909 9.968-2.688l49.542-28.603c-.441 21.465-18.027 38.794-39.596 38.794h-78.8c-21.844.001-39.616-17.771-39.616-39.615zm118.484 108v-15.368c0-14.193 3.785-27.507 10.368-39.028 18.933-3.68 34.407-17.161 40.892-34.937 8.64-3.258 17.99-5.051 27.756-5.051 43.57 0 79.016 35.446 79.016 79.016v15.368c0 12.911-6.21 24.396-15.799 31.632h-126.434c-9.589-7.237-15.799-18.722-15.799-31.632z"/></g></g></svg>