<svg xmlns="http://www.w3.org/2000/svg" xmlns:xlink="http://www.w3.org/1999/xlink" viewBox="0 0 134.167 71.167" fill="#fff" fill-rule="evenodd" stroke="#000" stroke-linecap="round" stroke-linejoin="round"><use xlink:href="#A" x="2.083" y="2.083"/><symbol id="A" overflow="visible"><g stroke="none" fill-rule="nonzero"><path d="M126.369 50.251c.452-.667 1.875-2.646 1.875-3.513l-4.167-7.152s-18.84-18.898-59.494-18.898S5.069 39.584 5.069 39.584L.25 47.328c0 .865 2.094 2.256 2.546 2.923C1.175 50.819 0 52.348 0 54.167a4.17 4.17 0 0 0 4.167 4.167c.208 0 .408-.033.613-.062a4.1 4.1 0 0 0-.613 2.146 4.17 4.17 0 0 0 4.167 4.167c.865 0 1.667-.265 2.333-.715.567 1.625 2.098 2.798 3.917 2.798s3.348-1.171 3.917-2.798c.667.45 1.469.715 2.333.715s1.667-.265 2.333-.715c.569 1.627 2.098 2.798 3.917 2.798s3.348-1.171 3.917-2.798c.667.45 1.469.715 2.333.715s1.667-.265 2.333-.715c.569 1.627 2.098 2.798 3.917 2.798s3.348-1.171 3.917-2.798c.667.45 1.469.715 2.333.715s1.667-.265 2.333-.715c.569 1.627 2.098 2.798 3.917 2.798s3.348-1.171 3.917-2.798c.667.45 1.469.715 2.333.715s1.667-.265 2.333-.715c.569 1.627 2.098 2.798 3.917 2.798s3.348-1.171 3.917-2.798c.667.45 1.469.715 2.333.715s1.667-.265 2.333-.715c.569 1.627 2.098 2.798 3.917 2.798s3.348-1.171 3.917-2.798c.667.45 1.469.715 2.333.715s1.667-.265 2.333-.715c.569 1.627 2.098 2.798 3.917 2.798s3.348-1.171 3.917-2.798c.667.45 1.469.715 2.333.715s1.667-.265 2.333-.715c.569 1.627 2.098 2.798 3.917 2.798s3.348-1.171 3.917-2.798c.667.45 1.469.715 2.333.715s1.667-.265 2.333-.715c.569 1.627 2.098 2.798 3.917 2.798s3.348-1.171 3.917-2.798c.667.45 1.469.715 2.333.715A4.17 4.17 0 0 0 125 60.417c0-.787-.229-1.517-.612-2.146.204.029.402.063.612.063a4.17 4.17 0 0 0 4.167-4.167c0-1.819-1.175-3.348-2.798-3.917z"/><use xlink:href="#C" fill="#ea5a47"/></g><g fill="none" stroke-width="4.167"><path d="M2.083 47.917a4.14 4.14 0 0 0 .715 2.333C1.175 50.819 0 52.348 0 54.167a4.17 4.17 0 0 0 4.167 4.167c.208 0 .408-.033.613-.062a4.1 4.1 0 0 0-.613 2.146 4.17 4.17 0 0 0 4.167 4.167c.865 0 1.667-.265 2.333-.715.567 1.625 2.098 2.798 3.917 2.798s3.348-1.171 3.917-2.798c.667.45 1.469.715 2.333.715s1.667-.265 2.333-.715c.569 1.627 2.098 2.798 3.917 2.798s3.348-1.171 3.917-2.798c.667.45 1.469.715 2.333.715s1.667-.265 2.333-.715c.569 1.627 2.098 2.798 3.917 2.798s3.348-1.171 3.917-2.798c.667.45 1.469.715 2.333.715s1.667-.265 2.333-.715c.569 1.627 2.098 2.798 3.917 2.798s3.348-1.171 3.917-2.798c.667.45 1.469.715 2.333.715s1.667-.265 2.333-.715c.569 1.627 2.098 2.798 3.917 2.798s3.348-1.171 3.917-2.798c.667.45 1.469.715 2.333.715s1.667-.265 2.333-.715c.569 1.627 2.098 2.798 3.917 2.798s3.348-1.171 3.917-2.798c.667.45 1.469.715 2.333.715s1.667-.265 2.333-.715c.569 1.627 2.098 2.798 3.917 2.798s3.348-1.171 3.917-2.798c.667.45 1.469.715 2.333.715s1.667-.265 2.333-.715c.569 1.627 2.098 2.798 3.917 2.798s3.348-1.171 3.917-2.798c.667.45 1.469.715 2.333.715s1.667-.265 2.333-.715c.569 1.627 2.098 2.798 3.917 2.798s3.348-1.171 3.917-2.798c.667.45 1.469.715 2.333.715A4.17 4.17 0 0 0 125 60.417c0-.788-.229-1.517-.612-2.146.204.029.402.063.612.063a4.17 4.17 0 0 0 4.167-4.167c0-1.819-1.175-3.348-2.798-3.917.452-.667.715-1.467.715-2.333"/><use xlink:href="#C"/></g></symbol><defs ><path id="C" d="M4.167 39.584S37.5 31.25 64.584 31.25 125 39.584 125 39.584v-12.5c-33.369-36.115-87.462-36.108-120.833 0v12.5z"/></defs></svg>